<svg width="1728" height="321" viewBox="0 0 1728 321" fill="none" xmlns="http://www.w3.org/2000/svg">
<path fill-rule="evenodd" clip-rule="evenodd" d="M0 104.892L21.6 92.8864C44.64 80.8804 89.28 56.8684 132.48 38.8594C177.12 20.8505 221.76 8.84449 266.4 2.8415C309.6 -3.16149 354.24 -3.16149 398.88 38.8594C443.52 80.8804 486.72 164.922 531.36 188.934C576 212.946 620.64 176.928 665.28 140.91C708.48 104.892 753.12 68.8744 797.76 68.8744C842.4 68.8744 885.6 104.892 930.24 110.895C974.88 116.898 1019.52 92.8864 1062.72 74.8774C1107.36 56.8684 1152 44.8624 1196.64 86.8834C1241.28 128.904 1284.48 224.952 1329.12 212.946C1373.76 200.94 1418.4 80.8804 1461.6 56.8684C1506.24 32.8565 1550.88 104.892 1595.52 122.901C1638.72 140.91 1683.36 104.892 1706.4 86.8834L1728 68.8744V321H1706.4C1683.36 321 1638.72 321 1595.52 321C1550.88 321 1506.24 321 1461.6 321C1418.4 321 1373.76 321 1329.12 321C1284.48 321 1241.28 321 1196.64 321C1152 321 1107.36 321 1062.72 321C1019.52 321 974.88 321 930.24 321C885.6 321 842.4 321 797.76 321C753.12 321 708.48 321 665.28 321C620.64 321 576 321 531.36 321C486.72 321 443.52 321 398.88 321C354.24 321 309.6 321 266.4 321C221.76 321 177.12 321 132.48 321C89.28 321 44.64 321 21.6 321H0V104.892Z" fill="#3B94DE"/>
</svg>
