<svg width="38" height="38" viewBox="0 0 38 38" fill="none" xmlns="http://www.w3.org/2000/svg">
<path d="M15.3853 22.6147L37 1M15.3853 22.6147L22.2627 36.3695C22.3489 36.5576 22.4873 36.717 22.6615 36.8288C22.8357 36.9406 23.0383 37 23.2452 37C23.4521 37 23.6547 36.9406 23.8289 36.8288C24.0031 36.717 24.1415 36.5576 24.2277 36.3695L37 1M15.3853 22.6147L1.6305 15.7373C1.44237 15.6511 1.28295 15.5127 1.17118 15.3385C1.05941 15.1643 1 14.9617 1 14.7548C1 14.5479 1.05941 14.3453 1.17118 14.1711C1.28295 13.9969 1.44237 13.8585 1.6305 13.7723L37 1" stroke="white" stroke-width="2" stroke-linecap="round" stroke-linejoin="round"/>
</svg>
