<svg width="54" height="54" viewBox="0 0 54 54" fill="none" xmlns="http://www.w3.org/2000/svg">
<path d="M16.875 49.5C14.7 49.5 12.8438 48.7313 11.3062 47.1937C9.76875 45.6562 9 43.8 9 41.625V12.375C9 10.2 9.76875 8.34375 11.3062 6.80625C12.8438 5.26875 14.7 4.5 16.875 4.5H40.5C41.7375 4.5 42.7969 4.94062 43.6781 5.82187C44.5594 6.70312 45 7.7625 45 9V36.0562C45 36.6562 44.85 37.2 44.55 37.6875C44.25 38.175 43.8375 38.55 43.3125 38.8125C42.7875 39.075 42.375 39.4594 42.075 39.9656C41.775 40.4719 41.625 41.025 41.625 41.625C41.625 42.225 41.775 42.7875 42.075 43.3125C42.375 43.8375 42.7875 44.2125 43.3125 44.4375C43.8 44.625 44.2031 44.9062 44.5219 45.2812C44.8406 45.6562 45 46.1063 45 46.6312V47.1937C45 47.8312 44.7844 48.375 44.3531 48.825C43.9219 49.275 43.3875 49.5 42.75 49.5H16.875ZM23.7937 25.2563H30.15L31.275 28.4062C31.35 28.6687 31.4906 28.875 31.6969 29.025C31.9031 29.175 32.1562 29.25 32.4562 29.25C32.9062 29.25 33.2625 29.0625 33.525 28.6875C33.7875 28.3125 33.825 27.9187 33.6375 27.5062L28.6875 14.3438C28.6125 14.0813 28.4625 13.875 28.2375 13.725C28.0125 13.575 27.75 13.5 27.45 13.5H26.4375C26.1375 13.5 25.875 13.575 25.65 13.725C25.425 13.875 25.275 14.0813 25.2 14.3438L20.25 27.5625C20.0625 27.975 20.1094 28.3594 20.3906 28.7156C20.6719 29.0719 21.0375 29.25 21.4875 29.25C21.7875 29.25 22.0406 29.175 22.2469 29.025C22.4531 28.875 22.5938 28.6687 22.6687 28.4062L23.7937 25.2563ZM24.5812 22.95L26.8875 16.425H27.0562L29.3062 22.95H24.5812ZM16.875 45H37.8562C37.6312 44.475 37.4531 43.9406 37.3219 43.3969C37.1906 42.8531 37.125 42.2625 37.125 41.625C37.125 41.025 37.1812 40.4437 37.2937 39.8812C37.4062 39.3187 37.5938 38.775 37.8562 38.25H16.875C15.9 38.25 15.0938 38.5781 14.4562 39.2344C13.8187 39.8906 13.5 40.6875 13.5 41.625C13.5 42.6 13.8187 43.4062 14.4562 44.0438C15.0938 44.6812 15.9 45 16.875 45Z" fill="black"/>
</svg>
