<svg width="1728" height="258" viewBox="0 0 1728 258" fill="none" xmlns="http://www.w3.org/2000/svg">
<path fill-rule="evenodd" clip-rule="evenodd" d="M-13.0175 84.1986L8.9133 74.5704C32.3066 64.9412 77.6307 45.6838 121.496 31.2339C166.823 16.783 212.154 7.13851 257.488 2.30051C301.36 -2.53647 346.697 -2.56801 392.058 31.0457C437.419 64.6594 481.341 131.919 526.692 151.114C572.043 170.308 617.36 141.438 662.677 112.567C706.532 83.6981 751.85 54.8277 797.187 54.7962C842.525 54.7647 886.42 83.5729 931.761 88.3479C977.101 93.1228 1022.43 73.8654 1066.29 59.4155C1111.62 44.9645 1156.95 35.3201 1202.31 68.9338C1247.67 102.548 1291.6 179.42 1336.93 169.776C1382.26 160.131 1427.53 63.9707 1471.39 44.7143C1516.72 25.4569 1562.09 83.1029 1607.44 97.4908C1651.33 111.88 1696.64 83.0093 1720.03 68.5737L1741.96 54.139L1742.1 256.01L1720.16 256.026C1696.76 256.042 1651.43 256.074 1607.55 256.104C1562.21 256.136 1516.88 256.167 1471.54 256.199C1427.66 256.229 1382.33 256.261 1336.99 256.292C1291.65 256.324 1247.78 256.354 1202.44 256.386C1157.1 256.417 1111.77 256.449 1066.43 256.48C1022.55 256.511 977.215 256.543 931.878 256.574C886.54 256.606 842.665 256.636 797.328 256.668C751.99 256.699 706.653 256.731 662.778 256.761C617.44 256.793 572.103 256.824 526.765 256.856C481.428 256.887 437.553 256.918 392.215 256.949C346.878 256.981 301.54 257.013 257.665 257.043C212.328 257.075 166.99 257.106 121.653 257.138C77.7778 257.168 32.4403 257.2 9.04035 257.216L-12.8971 257.231L-13.0175 84.1986Z" fill="url(#paint0_linear_68_14)"/>
<defs>
<linearGradient id="paint0_linear_68_14" x1="950.971" y1="67.8885" x2="939.98" y2="256.62" gradientUnits="userSpaceOnUse">
<stop stop-color="#B1DBFE"/>
<stop offset="1" stop-color="#0B66B1"/>
</linearGradient>
</defs>
</svg>
