<svg width="54" height="44" viewBox="0 0 54 44" fill="none" xmlns="http://www.w3.org/2000/svg">
<path fill-rule="evenodd" clip-rule="evenodd" d="M1.93519 10.4588C1.35656 10.7321 0.867323 11.1651 0.524646 11.7073C0.181969 12.2495 0 12.8784 0 13.5206C0 14.1628 0.181969 14.7917 0.524646 15.3339C0.867323 15.8761 1.35656 16.3091 1.93519 16.5824L6.75788 18.8686V32.1456C6.75788 34.6587 7.57065 37.4631 9.94153 39.1905C12.9296 41.3582 18.3728 44 27.0064 44C35.6401 44 41.0698 41.3412 44.0713 39.1905C46.4422 37.4699 47.255 34.6858 47.255 32.1456V18.8686L50.6275 17.2666V32.1354C50.6275 32.5846 50.8051 33.0153 51.1214 33.3329C51.4376 33.6505 51.8665 33.8289 52.3137 33.8289C52.761 33.8289 53.1899 33.6505 53.5061 33.3329C53.8223 33.0153 54 32.5846 54 32.1354V13.5071C54.0001 12.8656 53.8189 12.2373 53.4774 11.6953C53.1359 11.1533 52.6482 10.7198 52.0709 10.4452L32.7802 1.30039C30.9772 0.444123 29.0076 0 27.0132 0C25.0188 0 23.0492 0.444123 21.2462 1.30039L1.95542 10.4452L1.93519 10.4588ZM10.1304 32.1354V20.4504L21.2259 25.734C23.0289 26.5903 24.9985 27.0344 26.9929 27.0344C28.9873 27.0344 30.9569 26.5903 32.7599 25.734L43.8555 20.4504V32.1354C43.8555 34.0186 43.2484 35.5563 42.0681 36.403C39.6264 38.1744 34.8846 40.6029 26.9929 40.6029C19.1013 40.6029 14.346 38.1913 11.9178 36.403C10.7408 35.5495 10.1304 34.0016 10.1304 32.1354ZM22.6761 4.36222C24.0255 3.72031 25.4999 3.38733 26.9929 3.38733C28.486 3.38733 29.9604 3.72031 31.3097 4.36222L50.6005 13.5071L31.3097 22.6519C29.9604 23.2938 28.486 23.6268 26.9929 23.6268C25.4999 23.6268 24.0255 23.2938 22.6761 22.6519L3.38537 13.5071L22.6761 4.36222Z" fill="black"/>
</svg>
