<svg width="1200" height="320" viewBox="0 0 1200 320" xmlns="http://www.w3.org/2000/svg">
  <defs>
    <linearGradient id="bg" x1="0" y1="0" x2="1200" y2="320" gradientUnits="userSpaceOnUse">
      <stop offset="0" stop-color="#0b1020"/>
      <stop offset="1" stop-color="#0f1f2e"/>
    </linearGradient>
    <linearGradient id="accent" x1="0" y1="0" x2="1" y2="1">
      <stop offset="0" stop-color="#38bdf8"/>
      <stop offset="1" stop-color="#22d3ee"/>
    </linearGradient>
    <pattern id="grid" width="40" height="40" patternUnits="userSpaceOnUse">
      <path d="M40 0H0V40" fill="none" stroke="#1e293b" stroke-width="1"/>
    </pattern>
    <linearGradient id="glow" x1="0" y1="0" x2="1" y2="0">
      <stop offset="0" stop-color="#38bdf8" stop-opacity="0.0"/>
      <stop offset="0.5" stop-color="#38bdf8" stop-opacity="0.6"/>
      <stop offset="1" stop-color="#38bdf8" stop-opacity="0.0"/>
    </linearGradient>
  </defs>
  <rect width="1200" height="320" rx="24" fill="url(#bg)"/>
  <rect width="1200" height="320" rx="24" fill="url(#grid)" opacity="0.35"/>
  <circle cx="1010" cy="70" r="130" fill="url(#accent)" opacity="0.12"/>
  <circle cx="1080" cy="240" r="160" fill="url(#accent)" opacity="0.10"/>
  <rect x="56" y="64" width="8" height="192" rx="4" fill="url(#accent)"/>
  <path d="M720 92C820 40 940 40 1040 92" stroke="url(#accent)" stroke-width="2" opacity="0.6" fill="none"/>
  <path d="M720 110C820 60 940 60 1040 110" stroke="url(#accent)" stroke-width="2" opacity="0.35" fill="none"/>
  <path d="M720 128C820 80 940 80 1040 128" stroke="url(#accent)" stroke-width="2" opacity="0.2" fill="none"/>
  <rect x="700" y="210" width="420" height="2" fill="url(#glow)" opacity="0.7"/>
  <text x="90" y="140" fill="#e2e8f0" font-family="Space Grotesk, Segoe UI, Tahoma, sans-serif" font-size="44" font-weight="700">alc-moon7</text>
  <text x="90" y="175" fill="#94a3b8" font-family="Space Grotesk, Segoe UI, Tahoma, sans-serif" font-size="20" font-weight="500">Web and Mobile Developer</text>
  <text x="90" y="205" fill="#7dd3fc" font-family="Space Grotesk, Segoe UI, Tahoma, sans-serif" font-size="16" font-weight="600">React - Flutter - Python - Java - C/C++</text>
  <text x="90" y="230" fill="#94a3b8" font-family="Space Grotesk, Segoe UI, Tahoma, sans-serif" font-size="14">API Integration | Auth Setup | Hosting</text>
  <text x="90" y="256" fill="#64748b" font-family="Space Grotesk, Segoe UI, Tahoma, sans-serif" font-size="12">Building production-ready apps with clean code and solid UX</text>
</svg>
